<svg width="190" height="25" viewBox="0 0 190 25" fill="none" xmlns="http://www.w3.org/2000/svg">
<path d="M161.661 9.91736V25H166.482V14.9449H184.113V25H188.934V9.91736H161.661ZM165.931 5.02755H184.526C187.143 4.54545 189.003 2.20386 189.554 0H160.904C161.455 2.20386 163.383 4.47658 165.931 5.02755ZM146.992 25C149.402 23.9669 150.711 22.1763 151.262 20.1102H129.568V0.0688705H124.678V25H146.992ZM88.5207 4.95868H105.738C108.355 4.2011 110.49 2.20386 111.041 0.0688705H83.7686V14.8072H106.083V19.9725H88.5895C85.8347 20.73 83.4931 22.5895 82.3223 25H110.904V9.91736H88.5895L88.5207 4.95868ZM46.0964 5.02755H64.6915C67.3085 4.54545 69.2369 2.20386 69.719 0H41C41.551 2.20386 43.4793 4.47658 46.0964 5.02755ZM46.0964 14.876H64.6915C67.3085 14.3939 69.2369 12.0523 69.719 9.84849H41C41.551 12.0523 43.4793 14.3251 46.0964 14.876ZM46.0964 25H64.6915C67.3085 24.5179 69.2369 22.1763 69.719 19.9725H41C41.551 22.1763 43.4793 24.5179 46.0964 25Z" fill="#FA004B"/>
<path d="M0 0.0690608C0.552486 2.27901 2.48619 4.48895 5.04144 5.04144H12.9144L13.3287 5.17956V25H18.232V5.17956L18.6464 5.04144H26.5193C29.1437 4.35083 31.0083 2.27901 31.5608 0.0690608V0L0 0.0690608Z" fill="#FA004B"/>
</svg>
