<svg width="469" height="1431" viewBox="0 0 469 1431" fill="none" xmlns="http://www.w3.org/2000/svg">
<mask id="mask0_14_8620" style="mask-type:alpha" maskUnits="userSpaceOnUse" x="-702" y="338" width="1064" height="877">
<path d="M-432.249 1178.54C-453.819 1172.12 -475.392 1164.86 -496.922 1156.78C-618.041 1111.28 -683.852 1044.96 -698.113 954.027C-710.47 875.23 -682.463 790.109 -657.753 715.008C-641.259 664.879 -625.679 617.528 -625.047 579.962C-622.937 454.904 -653.063 417.947 -671.062 395.866C-681.485 383.08 -688.369 374.634 -681.758 356.869C-675.278 339.459 -608.764 334.588 -472.436 341.538C-413.475 344.542 -374.7 368.671 -343.543 388.06C-327.934 397.772 -314.433 406.174 -301.446 409.99L-301.83 411.196L-301.446 409.99C-265.694 420.514 -254.571 419.17 -230.199 416.225C-209.876 413.769 -179.163 410.057 -116.377 411.454C-61.2027 412.681 18.9273 433.345 92.7463 465.387C134.749 483.618 173.395 504.753 207.614 528.205C245.918 554.457 277.757 583.055 302.246 613.207C347.61 669.063 367.213 729.239 360.511 792.064C353.908 853.956 333.176 913.114 298.892 967.891C264.837 1022.3 219.158 1069.62 163.126 1108.54C81.5628 1165.18 -18.4902 1200.65 -126.215 1211.11C-183.644 1216.68 -243.373 1215.21 -303.746 1206.75C-346.168 1200.8 -389.187 1191.35 -432.249 1178.54ZM-421.596 352.717C-436.812 348.191 -453.709 345 -472.711 344.031C-534.713 340.871 -581.404 340.186 -615.454 341.936C-664.567 344.46 -677.437 351.871 -679.586 357.645C-685.674 374.001 -679.838 381.16 -669.246 394.155C-651.044 416.485 -620.578 453.859 -622.703 579.832C-623.343 617.809 -638.986 665.35 -655.546 715.683C-680.161 790.493 -708.059 875.284 -695.801 953.449C-681.681 1043.49 -616.329 1109.22 -496.008 1154.41C-431.642 1178.59 -366.8 1195.36 -303.283 1204.27C-243.078 1212.71 -183.521 1214.18 -126.265 1208.62C-18.9366 1198.2 80.7234 1162.88 161.943 1106.47C217.681 1067.76 263.11 1020.71 296.968 966.608C331.028 912.191 351.623 853.429 358.181 791.954C364.809 729.826 345.378 670.261 300.427 614.915C276.07 584.924 244.384 556.468 206.251 530.332C172.143 506.956 133.614 485.886 91.7349 467.708C18.1523 435.768 -61.6737 415.171 -116.589 413.949C-179.217 412.556 -209.835 416.256 -230.096 418.704C-254.775 421.686 -266.038 423.048 -302.213 412.4C-302.274 412.381 -302.338 412.362 -302.399 412.345C-315.625 408.409 -329.162 399.986 -344.827 390.238C-365.71 377.244 -390.039 362.106 -421.596 352.717Z" fill="url(#paint0_linear_14_8620)"/>
</mask>
<g mask="url(#mask0_14_8620)">
<path d="M-432.07 1178.53C-453.64 1172.11 -475.212 1164.84 -496.741 1156.74C-617.859 1111.19 -683.682 1044.83 -697.97 953.865C-710.351 875.047 -682.375 789.921 -657.693 714.816C-641.217 664.684 -625.655 617.33 -625.035 579.757C-622.966 454.675 -653.099 417.698 -671.103 395.605C-681.528 382.811 -688.415 374.361 -681.81 356.595C-675.337 339.185 -608.833 334.341 -472.522 341.351C-413.567 344.382 -374.79 368.532 -343.63 387.938C-328.021 397.659 -314.518 406.068 -301.532 409.891L-301.916 411.097L-301.532 409.891C-265.782 420.433 -254.661 419.093 -230.293 416.158C-209.974 413.71 -179.266 410.01 -116.488 411.435C-61.3208 412.686 18.805 433.389 92.6244 465.47C134.627 483.722 173.275 504.878 207.496 528.349C245.804 554.623 277.647 583.241 302.143 613.41C347.519 669.296 367.139 729.492 360.458 792.327C353.876 854.229 333.166 913.389 298.904 968.163C264.871 1022.57 219.213 1069.88 163.201 1108.78C81.6677 1165.4 -18.3602 1200.83 -126.067 1211.24C-183.486 1216.79 -243.208 1215.3 -303.576 1206.81C-345.993 1200.84 -389.01 1191.36 -432.07 1178.53ZM-421.685 352.554C-436.9 348.021 -453.796 344.822 -472.796 343.845C-534.79 340.658 -581.475 339.952 -615.519 341.687C-664.625 344.191 -677.491 351.598 -679.638 357.372C-685.72 373.729 -679.883 380.892 -669.288 393.893C-651.081 416.236 -620.607 453.631 -622.691 579.627C-623.319 617.612 -638.944 665.156 -655.486 715.492C-680.073 790.306 -707.941 875.101 -695.659 953.287C-681.511 1043.35 -616.147 1109.13 -495.828 1154.38C-431.463 1178.59 -366.624 1195.39 -303.113 1204.33C-242.914 1212.8 -183.364 1214.29 -126.118 1208.76C-18.8073 1198.38 80.8277 1163.1 162.018 1106.71C217.736 1068.02 263.143 1020.97 296.98 966.879C331.018 912.466 351.591 853.7 358.128 792.216C364.735 730.078 345.288 670.494 300.325 615.116C275.962 585.11 244.271 556.634 206.134 530.476C172.024 507.081 133.493 485.99 91.6138 467.791C18.0309 435.813 -61.7909 415.176 -116.699 413.931C-179.319 412.51 -209.932 416.197 -230.189 418.638C-254.864 421.61 -266.125 422.966 -302.298 412.301C-302.36 412.282 -302.423 412.263 -302.484 412.246C-315.71 408.304 -329.247 399.873 -344.914 390.117C-365.798 377.11 -390.129 361.959 -421.685 352.554Z" fill="url(#paint1_linear_14_8620)"/>
</g>
<mask id="mask1_14_8620" style="mask-type:alpha" maskUnits="userSpaceOnUse" x="-652" y="365" width="970" height="806">
<path d="M-407.37 1138.19C-424.815 1133 -442.263 1127.21 -459.686 1120.82C-569.461 1080.87 -630.356 1022.23 -645.849 941.572C-659.308 871.499 -636.67 794.959 -616.696 727.429C-602.783 680.389 -589.642 635.958 -590.702 600.379C-592.635 486.896 -621.356 450.862 -638.516 429.332C-648.887 416.32 -655.74 407.724 -649.537 390.405C-646.187 380.576 -626.06 373.529 -589.725 369.479C-557.038 365.836 -512.512 364.782 -460.962 366.434C-407.068 367.932 -371.25 388.503 -342.471 405.031C-328.558 413.021 -316.543 419.921 -304.81 423.429L-304.809 423.429C-267.631 434.616 -257.374 434.153 -226.966 432.837C-206.535 431.952 -178.554 430.74 -128.211 432.292C-76.6374 433.867 -1.90097 453.247 66.8319 482.869C106.144 499.812 142.257 519.392 174.168 541.069C209.973 565.389 239.67 591.86 262.436 619.742C303.508 670.045 321.618 724.193 316.261 780.683C310.746 837.494 292.281 891.885 261.379 942.348C230.673 992.493 189.281 1036.18 138.354 1072.18C64.7666 1124.21 -25.6844 1157.14 -123.22 1167.42C-175.224 1172.89 -229.376 1172 -284.168 1164.76C-324.791 1159.39 -366.053 1150.48 -407.37 1138.19ZM-408.503 377.098C-423.975 372.495 -441.344 369.33 -461.177 368.778C-570.212 365.286 -641.597 373.832 -647.478 391.085C-653.225 407.13 -647.041 414.888 -636.795 427.741C-619.459 449.491 -590.445 485.893 -588.498 600.157C-587.428 636.124 -600.626 680.746 -614.598 727.989C-634.489 795.241 -657.035 871.466 -643.689 940.948C-628.351 1020.8 -567.888 1078.91 -458.842 1118.6C-400.287 1140.06 -341.376 1154.81 -283.746 1162.43C-229.112 1169.65 -175.125 1170.54 -123.282 1165.08C-26.1197 1154.85 63.9632 1122.06 137.23 1070.25C187.879 1034.44 229.038 991.011 259.563 941.163C290.256 891.039 308.597 837.02 314.072 780.604C319.368 724.763 301.422 671.181 260.733 621.348C230.661 584.518 172.447 530.975 65.8876 485.051C-2.63033 455.523 -77.0888 436.205 -128.426 434.635C-178.694 433.086 -206.631 434.296 -227.029 435.18C-256.863 436.471 -268.043 436.94 -305.54 425.69C-317.49 422.116 -329.598 415.164 -343.617 407.112C-361.585 396.794 -382.323 384.886 -408.503 377.098Z" fill="url(#paint2_linear_14_8620)"/>
</mask>
<g mask="url(#mask1_14_8620)">
<path d="M-407.205 1138.19C-424.649 1132.99 -442.097 1127.19 -459.52 1120.79C-569.292 1080.78 -630.198 1022.11 -645.715 941.426C-659.195 871.335 -636.584 794.789 -616.635 727.254C-602.739 680.211 -589.614 635.777 -590.685 600.19C-592.655 486.684 -621.384 450.63 -638.548 429.088C-648.922 416.07 -655.776 407.469 -649.58 390.149C-646.234 380.32 -626.112 373.28 -589.783 369.245C-557.101 365.615 -512.582 364.581 -461.038 366.255C-407.152 367.776 -371.332 388.367 -342.552 404.911C-328.638 412.908 -316.622 419.815 -304.89 423.329L-304.889 423.329C-267.713 434.534 -257.457 434.076 -227.054 432.772C-206.625 431.896 -178.649 430.696 -128.312 432.27C-76.745 433.868 -2.01259 453.284 66.7204 482.942C106.032 499.905 142.147 519.504 174.061 541.2C209.868 565.54 239.57 592.029 262.342 619.927C303.425 670.257 321.549 724.424 316.212 780.923C310.716 837.742 292.271 892.136 261.389 942.596C230.704 992.738 189.331 1036.41 138.423 1072.4C64.8622 1124.41 -25.5657 1157.31 -123.085 1167.54C-175.08 1173 -229.225 1172.08 -284.011 1164.81C-324.631 1159.42 -365.89 1150.5 -407.205 1138.19ZM-408.583 376.943C-424.055 372.333 -441.422 369.16 -461.253 368.6C-570.274 365.06 -641.646 373.577 -647.521 390.83C-653.262 406.876 -647.076 414.638 -636.828 427.499C-619.487 449.26 -590.465 485.682 -588.482 599.969C-587.4 635.944 -600.582 680.569 -614.537 727.815C-634.404 795.072 -656.922 871.302 -643.555 940.804C-628.193 1020.67 -567.72 1078.82 -458.677 1118.57C-400.123 1140.07 -341.215 1154.84 -283.59 1162.48C-228.961 1169.73 -174.981 1170.64 -123.148 1165.2C-26.0017 1155.01 64.0582 1122.25 137.298 1070.47C187.929 1034.68 229.068 991.255 259.573 941.41C290.246 891.289 308.566 837.268 314.023 780.843C319.3 724.993 301.339 671.392 260.64 621.532C230.56 584.682 172.336 531.102 65.7769 485.124C-2.74112 455.56 -77.1956 436.206 -128.526 434.613C-178.788 433.042 -206.721 434.241 -227.116 435.116C-256.945 436.395 -268.124 436.859 -305.619 425.59C-317.569 422.01 -329.677 415.051 -343.697 406.992C-361.666 396.664 -382.404 384.745 -408.583 376.943Z" fill="url(#paint3_linear_14_8620)"/>
</g>
<mask id="mask2_14_8620" style="mask-type:alpha" maskUnits="userSpaceOnUse" x="-620" y="391" width="893" height="737">
<path d="M-381.938 1098.1C-395.408 1094.09 -408.903 1089.69 -422.454 1084.87C-520.958 1050.39 -576.909 999.373 -593.502 928.889C-607.961 867.47 -590.599 799.498 -575.28 739.527C-564.089 695.715 -553.52 654.333 -556.364 620.789C-562.214 518.937 -589.543 483.905 -605.871 462.974C-616.263 449.652 -623.127 440.852 -617.33 423.929C-610.088 400.622 -525.254 390.678 -449.502 391.316C-400.394 391.257 -367.396 408.362 -340.882 422.106C-328.858 428.339 -318.473 433.722 -308.184 436.854L-308.182 436.854C-266.019 449.811 -257.58 449.984 -210.747 450.991C-193.112 451.371 -171.164 451.843 -140.05 453.117C-108.233 454.403 -66.3863 462.836 -22.2202 476.865C27.4807 492.652 75.7349 514.153 117.328 539.045C166.553 568.503 204.889 601.546 231.275 637.253C262.011 678.85 275.718 723.273 272.013 769.29C267.593 821.026 251.398 870.66 223.879 916.82C196.521 962.71 159.413 1002.76 113.587 1035.87C47.9671 1083.27 -32.8874 1113.66 -120.237 1123.74C-204.277 1133.44 -292.142 1124.81 -381.938 1098.1ZM-394.486 401.407C-410.398 396.674 -428.526 393.485 -449.652 393.512C-539.871 392.752 -609.569 405.793 -615.387 424.519C-620.791 440.295 -614.564 448.278 -604.247 461.503C-587.77 482.624 -560.194 517.974 -554.307 620.473C-551.432 654.38 -562.05 695.952 -573.293 739.964C-588.544 799.672 -605.83 867.345 -591.499 928.218C-575.077 997.979 -519.529 1048.54 -421.684 1082.78C-318.055 1119.64 -216.668 1132.68 -120.314 1121.56C-33.3158 1111.52 47.1951 1081.27 112.515 1034.08C158.082 1001.16 194.973 961.348 222.164 915.738C249.492 869.899 265.574 820.613 269.962 769.249C273.623 723.792 260.05 679.861 229.623 638.684C203.39 603.181 165.237 570.308 116.227 540.977C74.7554 516.158 26.6346 494.717 -22.9322 478.973C-66.9467 464.999 -108.615 456.59 -140.271 455.31C-171.367 454.037 -193.304 453.565 -210.93 453.185C-257.987 452.172 -266.46 451.985 -308.877 438.967C-319.328 435.785 -329.781 430.366 -341.884 424.092C-356.786 416.37 -373.753 407.575 -394.486 401.407Z" fill="url(#paint4_linear_14_8620)"/>
</mask>
<g mask="url(#mask2_14_8620)">
<path d="M-381.787 1098.1C-395.257 1094.09 -408.751 1089.67 -422.302 1084.84C-520.803 1050.32 -576.763 999.267 -593.376 928.762C-607.853 867.324 -590.515 799.347 -575.218 739.37C-564.043 695.555 -553.488 654.169 -556.343 620.617C-562.225 518.743 -589.561 483.692 -605.894 462.749C-616.289 449.42 -623.155 440.616 -617.364 423.692C-610.131 400.384 -525.311 390.474 -449.57 391.145C-400.469 391.108 -367.47 408.23 -340.955 421.989C-328.931 428.229 -318.546 433.617 -308.257 436.754L-308.255 436.754C-266.093 449.732 -257.656 449.908 -210.829 450.936C-193.196 451.323 -171.252 451.805 -140.141 453.093C-108.328 454.393 -66.4845 462.846 -22.32 476.897C27.3791 492.709 75.6334 514.235 117.229 539.149C166.456 568.634 204.798 601.7 231.191 637.426C261.937 679.044 275.656 723.482 271.967 769.506C267.564 821.251 251.387 870.888 223.887 917.045C196.548 962.932 159.457 1002.98 113.649 1036.07C48.0535 1083.45 -32.7799 1113.81 -120.114 1123.86C-204.139 1133.52 -291.995 1124.85 -381.787 1098.1ZM-394.559 401.263C-410.469 396.522 -428.596 393.324 -449.719 393.341C-539.925 392.542 -609.61 405.556 -615.421 424.283C-620.819 440.06 -614.591 448.047 -604.271 461.279C-587.79 482.411 -560.206 517.78 -554.287 620.302C-551.401 654.217 -562.004 695.792 -573.231 739.808C-588.461 799.521 -605.723 867.2 -591.374 928.091C-574.931 997.873 -519.374 1048.46 -421.532 1082.75C-317.906 1119.67 -216.529 1132.76 -120.192 1121.67C-33.209 1111.67 47.2809 1081.45 112.576 1034.28C158.126 1001.38 195 961.569 222.172 915.962C249.482 870.125 265.545 820.837 269.916 769.465C273.561 724 259.976 680.055 229.541 638.856C203.299 603.335 165.141 570.439 116.128 541.082C74.6548 516.24 26.5338 494.773 -23.0313 479.005C-67.0441 465.009 -108.709 456.58 -140.362 455.286C-171.453 453.999 -193.388 453.518 -211.012 453.13C-258.062 452.097 -266.534 451.906 -308.949 438.867C-319.399 435.68 -329.853 430.255 -341.957 423.975C-356.859 416.244 -373.826 407.441 -394.559 401.263Z" fill="url(#paint5_linear_14_8620)"/>
</g>
<mask id="mask3_14_8620" style="mask-type:alpha" maskUnits="userSpaceOnUse" x="-588" y="416" width="817" height="669">
<path d="M-357.277 1057.85C-366.57 1055.08 -375.885 1052.1 -385.227 1048.91C-472.555 1019.86 -523.533 976.359 -541.067 915.925C-556.401 863.069 -544.724 806.204 -533.431 751.21C-525.134 710.807 -517.298 672.643 -522.038 641.197C-531.627 551.06 -556.572 518.451 -573.078 496.873C-583.97 482.635 -590.543 474.042 -585.141 457.443C-579.106 435.993 -514.496 417.85 -438.064 416.183C-393.213 414.452 -362.763 428.262 -338.296 439.358C-328.936 443.603 -320.095 447.613 -311.575 450.26L-311.572 450.261L-307.265 451.619C-257.723 467.242 -253.678 468.515 -151.9 473.929C-123.297 475.425 -84.1841 483.426 -44.598 495.853C0.933018 510.157 45.1392 529.459 83.2426 551.674C128.516 578.069 163.927 607.64 188.491 639.563C217.147 676.801 230.361 716.611 227.764 757.886C224.446 804.558 210.527 849.446 186.392 891.315C162.383 932.965 129.556 969.403 88.8233 999.616C31.1625 1042.38 -40.102 1070.21 -117.267 1080.09C-194.012 1089.92 -274.625 1082.43 -357.277 1057.85ZM-378.837 425.617C-395.504 420.659 -414.875 417.329 -438.142 418.227C-512.492 419.849 -577.61 437.667 -583.318 457.947C-588.385 473.517 -582.051 481.798 -571.556 495.517C-555.931 515.943 -529.778 550.13 -520.136 640.783C-515.344 672.562 -523.22 710.911 -531.557 751.512C-542.796 806.246 -554.418 862.843 -539.227 915.2C-521.877 975.003 -471.276 1018.1 -384.531 1046.95C-292.349 1078.49 -202.463 1088.96 -117.36 1078.06C-40.5226 1068.22 30.4228 1040.53 87.806 997.965C128.298 967.932 160.924 931.72 184.779 890.336C208.74 848.769 222.559 804.205 225.853 757.884C228.417 717.132 215.336 677.778 186.976 640.924C162.552 609.185 127.311 579.765 82.2344 553.485C44.241 531.333 0.156145 512.084 -45.2553 497.819C-84.7053 485.424 -123.662 477.461 -152.125 475.972C-254.127 470.546 -258.193 469.266 -307.922 453.584L-312.227 452.227C-320.849 449.549 -329.737 445.517 -339.147 441.25C-350.729 435.997 -363.662 430.131 -378.837 425.617Z" fill="url(#paint6_linear_14_8620)"/>
</mask>
<g mask="url(#mask3_14_8620)">
<path d="M-357.14 1057.85C-366.433 1055.08 -375.746 1052.09 -385.088 1048.89C-472.414 1019.8 -523.399 976.269 -540.949 915.816C-556.299 862.943 -544.641 806.071 -533.368 751.072C-525.085 710.664 -517.263 672.496 -522.012 641.043C-531.629 550.884 -556.581 518.258 -573.091 496.669C-583.986 482.423 -590.562 473.825 -585.166 457.225C-579.138 435.774 -514.543 417.655 -438.123 416.021C-393.279 414.31 -362.829 428.136 -338.361 439.244C-329.002 443.494 -320.16 447.509 -311.641 450.16L-311.638 450.161L-307.331 451.521C-257.791 467.168 -253.746 468.443 -151.981 473.903C-123.382 475.412 -84.2715 483.431 -44.6871 495.877C0.842102 510.204 45.0483 529.529 83.1534 551.765C128.428 578.185 163.845 607.777 188.416 639.717C217.079 676.975 230.304 716.798 227.722 758.08C224.419 804.76 210.516 849.65 186.398 891.516C162.406 933.164 129.596 969.595 88.8784 999.796C31.2396 1042.55 -40.0058 1070.35 -117.157 1080.2C-193.888 1090 -274.491 1082.47 -357.14 1057.85ZM-378.901 425.483C-395.567 420.517 -414.937 417.177 -438.2 418.065C-512.539 419.655 -577.643 437.449 -583.343 457.73C-588.404 473.301 -582.068 481.586 -571.57 495.313C-555.941 515.75 -529.781 549.955 -520.11 640.629C-515.309 672.416 -523.172 710.769 -531.494 751.375C-542.714 806.115 -554.315 862.717 -539.11 915.091C-521.743 974.913 -471.135 1018.04 -384.394 1046.94C-292.215 1078.52 -202.337 1089.03 -117.25 1078.17C-40.427 1068.36 30.4994 1040.69 87.8607 998.145C128.337 968.123 160.947 931.919 184.785 890.537C208.73 848.972 222.532 804.406 225.811 758.077C228.36 717.319 215.269 677.951 186.901 641.078C162.47 609.322 127.225 579.881 82.146 553.576C44.1508 531.403 0.0659644 512.132 -45.3436 497.844C-84.7921 485.429 -123.746 477.448 -152.205 475.946C-254.195 470.475 -258.261 469.193 -307.987 453.486L-312.292 452.127C-320.914 449.444 -329.802 445.408 -339.212 441.136C-350.794 435.877 -363.727 430.005 -378.901 425.483Z" fill="url(#paint7_linear_14_8620)"/>
</g>
<mask id="mask4_14_8620" style="mask-type:alpha" maskUnits="userSpaceOnUse" x="-555" y="440" width="739" height="602">
<path d="M-332.74 1017.7C-337.825 1016.18 -342.914 1014.6 -348.019 1012.94C-518.969 959.825 -504.148 854.898 -491.074 762.322C-485.882 725.563 -480.979 690.846 -487.741 661.588C-500.813 583.29 -524.437 551.909 -540.07 531.143C-551.261 516.277 -558.017 507.303 -552.997 490.927C-550.339 480.419 -535.703 468.959 -512.854 459.535C-488.593 449.529 -457.986 442.95 -426.668 441.011C-384.867 437.312 -357.536 447.754 -333.421 456.967C-327.023 459.412 -320.979 461.72 -315 463.623L-314.995 463.624C-306.007 466.537 -298.238 469.261 -291.383 471.664C-259.72 482.764 -240.609 489.462 -163.77 494.705C-114.749 497.987 -27.2084 521.158 49.1467 564.27C90.4752 587.605 122.962 613.705 145.703 641.843C172.281 674.726 185.003 709.923 183.516 746.458C181.311 788.079 169.674 828.238 148.927 865.833C128.271 903.264 99.7205 936.103 64.0716 963.438C14.355 1001.56 -47.3309 1026.82 -114.318 1036.48C-183.758 1046.5 -257.167 1040.18 -332.74 1017.7ZM-360.527 449.47C-378.523 444.116 -399.528 440.498 -426.668 442.9C-493.952 447.067 -546.344 471.778 -551.297 491.35C-556.034 506.81 -549.492 515.5 -538.654 529.896C-522.917 550.8 -499.136 582.39 -486.003 661.073C-479.17 690.627 -484.099 725.526 -489.317 762.474C-495.939 809.361 -502.787 857.843 -486.891 901.806C-468.807 951.82 -423.181 987.577 -347.404 1011.12C-266.676 1037.36 -188.294 1045.26 -114.437 1034.61C-47.7532 1024.98 13.6368 999.854 63.0978 961.928C98.525 934.764 126.89 902.14 147.409 864.96C168.002 827.646 179.551 787.788 181.738 746.495C183.646 699.609 162.034 630.215 48.229 565.958C-27.9104 522.967 -115.162 499.865 -164.008 496.595C-241.067 491.336 -260.257 484.611 -292.045 473.467C-298.891 471.067 -306.651 468.347 -315.618 465.441C-321.641 463.523 -327.706 461.207 -334.125 458.755C-342.391 455.597 -351.042 452.292 -360.527 449.47Z" fill="url(#paint8_linear_14_8620)"/>
</mask>
<g mask="url(#mask4_14_8620)">
<path d="M-332.616 1017.69C-337.701 1016.18 -342.79 1014.59 -347.894 1012.93C-518.837 959.731 -504.052 854.79 -491.01 762.202C-485.831 725.439 -480.94 690.717 -487.71 661.45C-500.805 583.132 -524.437 551.734 -540.073 530.958C-551.268 516.084 -558.025 507.106 -553.012 490.729C-550.358 480.22 -535.727 468.764 -512.885 459.348C-488.631 449.351 -458.03 442.784 -426.717 440.858C-384.924 437.177 -357.593 447.632 -333.479 456.858C-327.081 459.306 -321.038 461.617 -315.058 463.523L-315.054 463.524C-306.066 466.441 -298.297 469.17 -291.442 471.576C-259.78 482.692 -240.67 489.399 -163.841 494.677C-114.825 497.981 -27.2904 521.194 49.0676 564.348C90.3976 587.706 122.888 613.824 145.635 641.978C172.22 674.878 184.951 710.088 183.476 746.629C181.286 788.257 169.663 828.419 148.931 866.012C128.29 903.442 99.7547 936.274 64.1199 963.598C14.4229 1001.7 -47.2457 1026.94 -114.22 1036.58C-183.646 1046.57 -257.047 1040.21 -332.616 1017.69ZM-360.583 449.347C-378.578 443.984 -399.581 440.357 -426.717 442.748C-493.99 446.886 -546.366 471.578 -551.312 491.152C-556.043 506.613 -549.5 515.308 -538.658 529.712C-522.917 550.626 -499.13 582.232 -485.972 660.936C-479.13 690.499 -484.048 725.402 -489.253 762.355C-495.859 809.248 -502.69 857.737 -486.782 901.715C-468.685 951.747 -423.054 987.53 -347.28 1011.11C-266.556 1037.39 -188.182 1045.33 -114.339 1034.7C-47.6686 1025.11 13.7043 999.999 63.1457 962.088C98.5589 934.934 126.909 902.316 147.413 865.138C167.991 827.826 179.526 787.965 181.699 746.665C183.592 699.771 161.96 630.355 48.1506 566.036C-27.9917 523.004 -115.238 499.86 -164.078 496.567C-241.128 491.274 -260.317 484.539 -292.104 473.379C-298.95 470.976 -306.709 468.252 -315.676 465.342C-321.699 463.421 -327.763 461.101 -334.182 458.645C-342.448 455.484 -351.099 452.174 -360.583 449.347Z" fill="url(#paint9_linear_14_8620)"/>
</g>
<mask id="mask5_14_8620" style="mask-type:alpha" maskUnits="userSpaceOnUse" x="-523" y="463" width="663" height="536">
<path d="M-316.37 975.353C-378.584 956.845 -417.748 928.485 -435.994 888.764C-452.591 852.634 -450.32 811.957 -448.125 772.62C-446.296 739.84 -444.567 708.878 -453.493 681.947C-469.643 615.696 -491.94 585.79 -506.695 566.001C-518.467 550.211 -525.573 540.681 -520.919 524.363C-515.879 502.007 -469.65 472.17 -415.345 465.778C-372.858 459.039 -346.676 467.647 -321.356 475.974L-318.479 476.92C-306.297 481 -296.334 485.156 -286.697 489.176C-260.866 499.95 -236.467 510.126 -175.679 515.425C-131.372 519.211 -52.7938 540.038 15.03 576.817C72.1925 607.816 140.148 660.419 139.261 734.986C137.119 808.132 100.697 878.25 39.3351 927.373C-2.45794 960.83 -54.5818 983.495 -111.402 992.919C-173.522 1003.22 -239.788 998.097 -308.395 977.688C-309.208 977.446 -310.018 977.203 -310.832 976.957C-312.699 976.43 -314.544 975.896 -316.37 975.353ZM-337.218 472.782C-358.112 466.567 -381.505 462.155 -415.249 467.507C-473.304 474.341 -514.996 505.428 -519.344 524.709C-523.763 540.213 -516.847 549.489 -505.387 564.859C-490.554 584.753 -468.139 614.818 -451.927 681.332C-442.915 708.514 -444.652 739.643 -446.491 772.599C-448.676 811.717 -450.932 852.168 -434.514 887.909C-415.933 928.36 -375.312 956.916 -310.3 975.271C-309.492 975.515 -308.674 975.761 -307.868 976C-239.463 996.349 -173.435 1001.46 -111.542 991.194C-55.0028 981.816 -3.14905 959.273 38.4126 926.002C68.7869 901.686 92.8969 872.622 110.073 839.617C127.293 806.528 136.563 771.352 137.625 735.067C138.502 661.356 70.9955 609.173 14.2098 578.379C-53.4299 541.699 -131.764 520.933 -175.924 517.16C-236.944 511.841 -261.445 501.62 -287.384 490.801C-296.996 486.792 -306.936 482.646 -319.067 478.583L-321.938 477.64C-326.955 475.993 -332.01 474.331 -337.218 472.782Z" fill="url(#paint10_linear_14_8620)"/>
</mask>
<g mask="url(#mask5_14_8620)">
<path d="M-316.259 975.347C-378.47 956.809 -417.637 928.425 -435.893 888.689C-452.499 852.545 -450.242 811.862 -448.06 772.518C-446.242 739.734 -444.523 708.766 -453.457 681.827C-469.626 615.556 -491.929 585.635 -506.689 565.836C-518.464 550.038 -525.572 540.503 -520.924 524.183C-515.892 501.826 -469.679 472.004 -415.384 465.634C-372.906 458.912 -346.725 467.533 -321.406 475.874L-318.53 476.82C-306.349 480.906 -296.386 485.068 -286.749 489.093C-260.918 499.88 -236.519 510.069 -175.739 515.395C-131.438 519.202 -52.8645 540.067 14.961 576.882C72.1249 607.912 140.087 660.554 139.225 735.134C137.107 808.293 100.713 878.408 39.3766 927.513C-2.39921 960.958 -54.5077 983.605 -111.316 993.006C-173.423 1003.28 -239.681 998.129 -308.284 977.686C-309.097 977.443 -309.908 977.2 -310.721 976.954C-312.588 976.426 -314.433 975.89 -316.259 975.347ZM-337.267 472.674C-358.16 466.448 -381.551 462.025 -415.288 467.363C-473.332 474.174 -515.008 505.248 -519.348 524.53C-523.762 540.036 -516.844 549.317 -505.381 564.695C-490.544 584.599 -468.122 614.679 -451.891 681.213C-442.871 708.403 -444.598 739.537 -446.426 772.498C-448.597 811.623 -450.84 852.08 -434.413 887.835C-415.822 928.302 -375.198 956.88 -310.189 975.267C-309.382 975.512 -308.564 975.758 -307.757 975.998C-239.357 996.381 -173.337 1001.52 -111.456 991.28C-54.9292 981.925 -3.09072 959.401 38.4538 926.141C68.8155 901.834 92.9124 872.776 110.075 839.772C127.282 806.685 136.538 771.506 137.589 735.214C138.442 661.49 70.9285 609.268 14.1415 578.444C-53.5 541.728 -131.828 520.923 -175.983 517.13C-236.996 511.783 -261.496 501.55 -287.435 490.718C-297.047 486.704 -306.987 482.553 -319.117 478.483L-321.988 477.539C-327.005 475.89 -332.06 474.225 -337.267 472.674Z" fill="url(#paint11_linear_14_8620)"/>
</g>
<mask id="mask6_14_8620" style="mask-type:alpha" maskUnits="userSpaceOnUse" x="-491" y="483" width="587" height="473">
<path d="M-290.351 936.373C-335.889 922.828 -366.413 902.398 -383.402 874.189C-400.314 846.106 -402.432 813.341 -404.478 781.655C-406.228 754.585 -408.036 726.592 -419.243 702.228C-437.789 648.388 -458.701 620.399 -472.538 601.877C-485.411 584.647 -493.183 574.247 -488.862 557.715C-484.626 536.4 -449.475 499.554 -404.06 490.447C-371.343 481.8 -346.79 481.695 -321.994 490.095L-321.989 490.098C-308.86 494.668 -297.972 500.095 -286.443 505.839C-262.078 517.98 -236.883 530.535 -187.598 536.045C-147.784 540.404 -78.0696 558.917 -19.0913 589.264C32.0174 615.561 93.3001 660.181 95.0106 723.408C95.1958 786.701 65.9112 847.93 14.664 891.413C-19.2363 920.178 -61.8199 940.217 -108.484 949.364C-160.1 959.481 -215.659 956.626 -273.618 940.878C-279.404 939.472 -284.986 937.969 -290.351 936.373ZM-326.967 490.205C-350.014 483.349 -373.326 483.937 -403.841 492C-448.651 500.988 -483.256 537.083 -487.411 557.989C-491.542 573.8 -484.367 583.402 -471.343 600.833C-457.45 619.427 -436.456 647.526 -417.862 701.518C-406.563 726.074 -404.745 754.219 -402.986 781.436C-400.951 812.932 -398.847 845.5 -382.126 873.265C-363.338 904.464 -327.701 926.066 -273.173 939.33C-215.401 955.025 -160.055 957.874 -108.654 947.798C-62.2461 938.701 -19.9081 918.782 13.7832 890.194C64.638 847.043 93.6997 786.301 93.5153 723.544C91.824 661.084 30.9505 616.829 -19.8178 590.706C-78.643 560.438 -148.161 541.975 -187.855 537.628C-237.382 532.093 -262.684 519.485 -287.152 507.289C-298.641 501.565 -309.494 496.156 -322.542 491.613C-324.017 491.113 -325.492 490.644 -326.967 490.205Z" fill="url(#paint12_linear_14_8620)"/>
</mask>
<g mask="url(#mask6_14_8620)">
<path d="M-290.253 936.369C-335.788 922.802 -366.314 902.355 -383.309 874.134C-400.227 846.038 -402.356 813.266 -404.412 781.574C-406.17 754.498 -407.987 726.499 -419.2 702.126C-437.761 648.268 -458.679 620.265 -472.52 601.735C-485.396 584.496 -493.17 574.09 -488.856 557.557C-484.627 536.24 -449.494 499.403 -404.089 490.314C-371.38 481.68 -346.831 481.586 -322.036 489.999L-322.031 490.001C-308.903 494.578 -298.015 500.01 -286.486 505.761C-262.122 517.914 -236.926 530.483 -187.647 536.016C-147.838 540.393 -78.1288 558.939 -19.15 589.318C31.9591 615.642 93.2465 660.297 94.9774 723.536C95.1833 786.84 65.9234 848.067 14.6986 891.535C-19.1869 920.29 -61.7571 940.314 -108.41 949.442C-160.015 959.539 -215.566 956.659 -273.521 940.882C-279.306 939.473 -284.888 937.968 -290.253 936.369ZM-327.009 490.106C-350.055 483.239 -373.362 483.816 -403.87 491.868C-448.67 500.838 -483.257 536.924 -487.405 557.832C-491.53 573.644 -484.353 583.251 -471.325 600.691C-457.429 619.294 -436.429 647.407 -417.82 701.417C-406.514 725.982 -404.688 754.132 -402.921 781.356C-400.876 812.858 -398.761 845.433 -382.033 873.21C-363.238 904.422 -327.6 926.044 -273.077 939.334C-215.309 955.057 -159.97 957.931 -108.581 947.876C-62.1837 938.798 -19.859 918.894 13.8175 890.315C64.6501 847.179 93.6873 786.439 93.4824 723.671C91.7709 661.199 30.8928 616.91 -19.8759 590.76C-78.7016 560.461 -148.214 541.964 -187.904 537.599C-237.424 532.041 -262.726 519.42 -287.195 507.211C-298.684 501.48 -309.537 496.066 -322.584 491.517C-324.059 491.015 -325.534 490.546 -327.009 490.106Z" fill="url(#paint13_linear_14_8620)"/>
</g>
<mask id="mask7_14_8620" style="mask-type:alpha" maskUnits="userSpaceOnUse" x="-458" y="500" width="510" height="413">
<path d="M-264.752 897.213C-338.094 875.397 -348.67 832.889 -359.801 788.164C-365.29 766.107 -370.966 743.298 -384.383 722.026C-403.994 681.353 -422.496 657.191 -436.006 639.548C-451.59 619.198 -460.173 607.987 -456.134 590.741C-454.107 579.008 -446.278 563.008 -435.709 549.031C-422.936 532.137 -407.49 520.003 -392.218 514.865C-366.868 503.668 -345.787 495.669 -325.017 503.007L-325.012 503.009C-311.954 507.767 -300.056 514.747 -287.46 522.135C-264.724 535.472 -238.953 550.588 -199.167 556.357C-171.592 560.272 -109.781 574.155 -53.0439 601.345C-23.5253 615.492 0.171225 631.16 17.3874 647.914C37.726 667.708 48.9717 689.039 50.8116 711.316C53.448 764.796 31.3765 817.201 -9.74217 855.118C-35.7678 879.117 -68.8099 896.452 -105.297 905.249C-145.647 914.979 -189.604 914.579 -235.945 904.065C-246.496 902.092 -256.066 899.797 -264.752 897.213ZM-327.832 503.626C-347.436 497.794 -367.648 505.53 -391.836 516.213C-426.751 527.962 -451.384 571.108 -454.814 590.949C-458.702 607.553 -450.26 618.577 -434.935 638.591C-421.39 656.277 -402.841 680.501 -383.207 721.232C-369.713 742.623 -364.008 765.542 -358.492 787.706C-352.204 812.976 -346.263 836.845 -329.484 856.996C-310.575 879.704 -280.742 894.209 -235.597 902.65C-189.423 913.128 -145.662 913.527 -105.506 903.846C-69.2497 895.104 -36.4268 877.888 -10.5852 854.059C30.1874 816.46 52.0746 764.505 49.4629 711.518C47.6535 689.614 36.5416 668.574 16.438 649.01C-0.683306 632.349 -24.2708 616.757 -53.6696 602.669C-110.274 575.543 -171.931 561.694 -199.439 557.788C-239.463 551.986 -265.343 536.805 -288.175 523.411C-300.722 516.051 -312.574 509.099 -325.528 504.378C-326.294 504.105 -327.062 503.855 -327.832 503.626Z" fill="url(#paint14_linear_14_8620)"/>
</mask>
<g mask="url(#mask7_14_8620)">
<path d="M-264.672 897.219C-338.01 875.366 -348.598 832.847 -359.741 788.109C-365.237 766.046 -370.92 743.23 -384.341 721.948C-403.962 681.259 -422.47 657.084 -435.983 639.433C-451.571 619.072 -460.157 607.855 -456.124 590.607C-454.101 578.873 -446.278 562.874 -435.716 548.899C-422.95 532.007 -407.511 519.878 -392.243 514.746C-366.9 503.558 -345.826 495.567 -325.056 502.915L-325.051 502.917C-311.994 507.681 -300.096 514.668 -287.499 522.063C-264.762 535.412 -238.991 550.542 -199.208 556.33C-171.637 560.258 -109.831 574.17 -53.0937 601.39C-23.5752 615.552 0.122763 631.234 17.3417 647.999C37.6835 667.804 48.9345 689.145 50.7813 711.427C53.4348 764.917 31.3838 817.322 -9.71597 855.228C-35.7297 879.22 -68.7609 896.544 -105.24 905.326C-145.58 915.04 -189.53 914.621 -235.867 904.085C-246.417 902.107 -255.986 899.807 -264.672 897.219ZM-327.87 503.533C-347.474 497.691 -367.68 505.42 -391.861 516.094C-426.766 527.83 -451.381 570.973 -454.804 590.816C-458.686 607.421 -450.241 618.451 -434.912 638.475C-421.364 656.171 -402.81 680.407 -383.166 721.154C-369.667 742.555 -363.955 765.48 -358.433 787.651C-352.137 812.928 -346.19 836.804 -329.407 856.966C-310.494 879.687 -280.661 894.207 -235.52 902.67C-189.35 913.17 -145.595 913.589 -105.449 903.923C-69.2011 895.195 -36.389 877.991 -10.5592 854.168C30.1947 816.58 52.0615 764.626 49.433 711.628C47.6167 689.719 36.4996 668.671 16.3928 649.094C-0.731246 632.422 -24.3201 616.817 -53.7189 602.714C-110.324 575.558 -171.975 561.68 -199.48 557.761C-239.499 551.941 -265.381 536.745 -288.213 523.339C-300.76 515.972 -312.613 509.013 -325.566 504.286C-326.333 504.012 -327.101 503.762 -327.87 503.533Z" fill="url(#paint15_linear_14_8620)"/>
</g>
<mask id="mask8_14_8620" style="mask-type:alpha" maskUnits="userSpaceOnUse" x="-425" y="514" width="433" height="357">
<path d="M-241.064 859.383C-285.37 846.205 -299.685 820.962 -316.852 790.7C-325.814 774.903 -335.08 758.569 -349.72 741.709C-367.385 715.802 -382.644 697.272 -394.906 682.381C-415.944 656.833 -427.532 642.76 -423.64 623.606C-420.436 601.904 -404.03 553.229 -380.653 539.149C-379.155 537.95 -377.659 536.734 -376.163 535.52C-360.534 522.828 -344.366 509.71 -328.212 515.725L-328.207 515.727C-315.68 520.547 -302.815 529.286 -289.194 538.54C-267.154 553.511 -242.176 570.48 -210.849 576.5C-176.905 582.898 -6.89114 618.874 6.6077 699.116C11.9501 742.99 -2.80444 786.833 -33.8657 819.434C-52.3987 838.886 -75.373 853.037 -102.149 861.494C-131.33 870.712 -163.712 872.645 -198.396 867.238C-215.186 865.577 -229.202 862.913 -241.064 859.383ZM-330.156 516.454C-345.233 511.969 -360.597 524.446 -375.473 536.526C-376.983 537.752 -378.494 538.978 -380.005 540.189L-380.077 540.24C-403.085 554.055 -419.271 602.23 -422.451 623.756C-426.224 642.326 -414.769 656.238 -393.972 681.493C-381.697 696.402 -366.418 714.956 -348.766 740.852C-334.09 757.746 -324.795 774.132 -315.805 789.979C-294.203 828.059 -277.138 858.138 -198.171 865.96C-163.63 871.343 -131.426 869.424 -102.417 860.262C-75.8484 851.87 -53.06 837.836 -34.684 818.549C-3.9152 786.255 10.6987 742.827 5.41218 699.4C0.0334688 667.43 -31.2514 638.847 -87.5672 614.477C-137.139 593.025 -190.499 581.661 -211.141 577.77C-242.686 571.705 -267.767 554.671 -289.894 539.641C-303.461 530.424 -316.277 521.718 -328.686 516.944C-329.175 516.763 -329.665 516.6 -330.156 516.454Z" fill="url(#paint16_linear_14_8620)"/>
</mask>
<g mask="url(#mask8_14_8620)">
<path d="M-240.999 859.399C-285.303 846.199 -299.624 820.946 -316.798 790.67C-325.764 774.867 -335.034 758.526 -349.677 741.656C-367.347 715.737 -382.611 697.196 -394.876 682.298C-415.918 656.736 -427.509 642.655 -423.624 623.5C-420.427 601.796 -404.04 553.118 -380.671 539.047C-379.174 537.848 -377.678 536.632 -376.183 535.418C-360.561 522.732 -344.4 509.617 -328.246 515.641L-328.241 515.643C-315.715 520.469 -302.849 529.216 -289.227 538.477C-267.186 553.461 -242.206 570.443 -210.882 576.479C-176.941 582.892 -6.94253 618.95 6.58034 699.212C11.9362 743.095 -2.80169 786.94 -33.8474 819.533C-52.3711 838.98 -75.3371 853.124 -102.106 861.571C-131.28 870.777 -163.656 872.696 -198.336 867.274C-215.124 865.605 -229.139 862.934 -240.999 859.399ZM-330.19 516.369C-345.266 511.877 -360.623 524.349 -375.493 536.425C-377.002 537.65 -378.512 538.876 -380.023 540.086L-380.095 540.138C-403.095 553.945 -419.263 602.121 -422.435 623.65C-426.202 642.222 -414.743 656.141 -393.942 681.41C-381.663 696.327 -366.381 714.891 -348.723 740.8C-334.045 757.703 -324.745 774.096 -315.752 789.949C-294.141 828.046 -277.068 858.138 -198.112 865.996C-163.575 871.394 -131.375 869.489 -102.374 860.339C-75.8128 851.956 -53.0326 837.93 -34.6658 818.647C-3.91247 786.362 10.6849 742.932 5.38511 699.495C-0.00318176 667.517 -31.2924 638.915 -87.6073 614.516C-137.178 593.039 -190.534 581.649 -211.173 577.749C-242.715 571.668 -267.798 554.621 -289.926 539.578C-303.494 530.354 -316.311 521.641 -328.72 516.86C-329.209 516.679 -329.699 516.515 -330.19 516.369Z" fill="url(#paint17_linear_14_8620)"/>
</g>
<defs>
<linearGradient id="paint0_linear_14_8620" x1="-377.669" y1="218.66" x2="43.1293" y2="1172.43" gradientUnits="userSpaceOnUse">
<stop stop-color="white"/>
<stop offset="0.0436" stop-color="#B4B4B4"/>
<stop offset="0.1507"/>
<stop offset="0.1714" stop-color="#171717"/>
<stop offset="0.3859" stop-color="white"/>
<stop offset="0.6326" stop-color="#E6E6E6"/>
<stop offset="0.8567" stop-color="#1A1A1A"/>
<stop offset="0.9987"/>
</linearGradient>
<linearGradient id="paint1_linear_14_8620" x1="-377.806" y1="218.49" x2="42.9932" y2="1172.75" gradientUnits="userSpaceOnUse">
<stop stop-color="#FA004B"/>
<stop offset="1" stop-color="#34384C" stop-opacity="0"/>
</linearGradient>
<linearGradient id="paint2_linear_14_8620" x1="-357.87" y1="256.582" x2="28.204" y2="1131.63" gradientUnits="userSpaceOnUse">
<stop stop-color="white"/>
<stop offset="0.0436" stop-color="#B4B4B4"/>
<stop offset="0.1507"/>
<stop offset="0.1714" stop-color="#171717"/>
<stop offset="0.3859" stop-color="white"/>
<stop offset="0.6326" stop-color="#E6E6E6"/>
<stop offset="0.8567" stop-color="#1A1A1A"/>
<stop offset="0.9987"/>
</linearGradient>
<linearGradient id="paint3_linear_14_8620" x1="-357.996" y1="256.427" x2="28.0777" y2="1131.92" gradientUnits="userSpaceOnUse">
<stop stop-color="#FA004B"/>
<stop offset="1" stop-color="#34384C" stop-opacity="0"/>
</linearGradient>
<linearGradient id="paint4_linear_14_8620" x1="-338.299" y1="293.992" x2="13.3072" y2="1090.9" gradientUnits="userSpaceOnUse">
<stop stop-color="white"/>
<stop offset="0.0436" stop-color="#B4B4B4"/>
<stop offset="0.1507"/>
<stop offset="0.1714" stop-color="#171717"/>
<stop offset="0.3859" stop-color="white"/>
<stop offset="0.6326" stop-color="#E6E6E6"/>
<stop offset="0.8567" stop-color="#1A1A1A"/>
<stop offset="0.9987"/>
</linearGradient>
<linearGradient id="paint5_linear_14_8620" x1="-338.414" y1="293.851" x2="13.1913" y2="1091.16" gradientUnits="userSpaceOnUse">
<stop stop-color="#FA004B"/>
<stop offset="1" stop-color="#34384C" stop-opacity="0"/>
</linearGradient>
<linearGradient id="paint6_linear_14_8620" x1="-319.035" y1="330.684" x2="-1.54039" y2="1050.27" gradientUnits="userSpaceOnUse">
<stop stop-color="white"/>
<stop offset="0.0436" stop-color="#B4B4B4"/>
<stop offset="0.1507"/>
<stop offset="0.1714" stop-color="#171717"/>
<stop offset="0.3859" stop-color="white"/>
<stop offset="0.6326" stop-color="#E6E6E6"/>
<stop offset="0.8567" stop-color="#1A1A1A"/>
<stop offset="0.9987"/>
</linearGradient>
<linearGradient id="paint7_linear_14_8620" x1="-319.14" y1="330.558" x2="-1.64605" y2="1050.5" gradientUnits="userSpaceOnUse">
<stop stop-color="#FA004B"/>
<stop offset="1" stop-color="#34384C" stop-opacity="0"/>
</linearGradient>
<linearGradient id="paint8_linear_14_8620" x1="-300.418" y1="365.744" x2="-16.2676" y2="1009.73" gradientUnits="userSpaceOnUse">
<stop stop-color="white"/>
<stop offset="0.0436" stop-color="#B4B4B4"/>
<stop offset="0.1507"/>
<stop offset="0.1714" stop-color="#171717"/>
<stop offset="0.3859" stop-color="white"/>
<stop offset="0.6326" stop-color="#E6E6E6"/>
<stop offset="0.8567" stop-color="#1A1A1A"/>
<stop offset="0.9987"/>
</linearGradient>
<linearGradient id="paint9_linear_14_8620" x1="-300.51" y1="365.631" x2="-16.3627" y2="1009.94" gradientUnits="userSpaceOnUse">
<stop stop-color="#FA004B"/>
<stop offset="1" stop-color="#34384C" stop-opacity="0"/>
</linearGradient>
<linearGradient id="paint10_linear_14_8620" x1="-282.969" y1="398.13" x2="-30.9042" y2="969.386" gradientUnits="userSpaceOnUse">
<stop stop-color="white"/>
<stop offset="0.0436" stop-color="#B4B4B4"/>
<stop offset="0.1507"/>
<stop offset="0.1714" stop-color="#171717"/>
<stop offset="0.3859" stop-color="white"/>
<stop offset="0.6326" stop-color="#E6E6E6"/>
<stop offset="0.8567" stop-color="#1A1A1A"/>
<stop offset="0.9987"/>
</linearGradient>
<linearGradient id="paint11_linear_14_8620" x1="-283.051" y1="398.031" x2="-30.9893" y2="969.571" gradientUnits="userSpaceOnUse">
<stop stop-color="#FA004B"/>
<stop offset="1" stop-color="#34384C" stop-opacity="0"/>
</linearGradient>
<linearGradient id="paint12_linear_14_8620" x1="-268.396" y1="427.612" x2="-46.7692" y2="929.881" gradientUnits="userSpaceOnUse">
<stop stop-color="white"/>
<stop offset="0.0436" stop-color="#B4B4B4"/>
<stop offset="0.1507"/>
<stop offset="0.1714" stop-color="#171717"/>
<stop offset="0.3859" stop-color="white"/>
<stop offset="0.6326" stop-color="#E6E6E6"/>
<stop offset="0.8567" stop-color="#1A1A1A"/>
<stop offset="0.9987"/>
</linearGradient>
<linearGradient id="paint13_linear_14_8620" x1="-268.467" y1="427.529" x2="-46.8455" y2="930.044" gradientUnits="userSpaceOnUse">
<stop stop-color="#FA004B"/>
<stop offset="1" stop-color="#34384C" stop-opacity="0"/>
</linearGradient>
<linearGradient id="paint14_linear_14_8620" x1="-267.827" y1="459.697" x2="-75.3046" y2="896.006" gradientUnits="userSpaceOnUse">
<stop stop-color="white"/>
<stop offset="0.0436" stop-color="#B4B4B4"/>
<stop offset="0.1507"/>
<stop offset="0.1714" stop-color="#171717"/>
<stop offset="0.3859" stop-color="white"/>
<stop offset="0.6326" stop-color="#E6E6E6"/>
<stop offset="0.8567" stop-color="#1A1A1A"/>
<stop offset="0.9987"/>
</linearGradient>
<linearGradient id="paint15_linear_14_8620" x1="-267.889" y1="459.623" x2="-75.3708" y2="896.146" gradientUnits="userSpaceOnUse">
<stop stop-color="#FA004B"/>
<stop offset="1" stop-color="#34384C" stop-opacity="0"/>
</linearGradient>
<linearGradient id="paint16_linear_14_8620" x1="-270.211" y1="482.248" x2="-102.326" y2="862.723" gradientUnits="userSpaceOnUse">
<stop stop-color="white"/>
<stop offset="0.0436" stop-color="#B4B4B4"/>
<stop offset="0.1507"/>
<stop offset="0.1714" stop-color="#171717"/>
<stop offset="0.3859" stop-color="white"/>
<stop offset="0.6326" stop-color="#E6E6E6"/>
<stop offset="0.8567" stop-color="#1A1A1A"/>
<stop offset="0.9987"/>
</linearGradient>
<linearGradient id="paint17_linear_14_8620" x1="-270.266" y1="482.182" x2="-102.385" y2="862.843" gradientUnits="userSpaceOnUse">
<stop stop-color="#FA004B"/>
<stop offset="1" stop-color="#34384C" stop-opacity="0"/>
</linearGradient>
</defs>
</svg>
