<svg width="12" height="16" viewBox="0 0 12 16" fill="none" xmlns="http://www.w3.org/2000/svg">
<path d="M6.00574 12.1982L1.56531 10.0303L6.00171 16.0002L6.66821 15.1033V11.8738L6.00574 12.1982Z" fill="#15BFFD"/>
<path d="M6.00171 0L0.90625 9.14294H11.0973L6.00171 0Z" fill="#15BFFD"/>
<path d="M11.0973 9.15649L6.00171 0V9.15649H11.0973Z" fill="#1286B0"/>
<path d="M4.46021 5.07812H5.46021V6.07812H4.46021V5.07812Z" fill="#F7F8FA"/>
<path d="M6.00171 6.65991L5.98169 6.65039L0.906738 9.15039H0.911255L5.98621 11.6504L6.00623 11.6409L6.66821 11.3169V6.98633L6.00171 6.65991Z" fill="#147EA5"/>
<path d="M4.46021 3.18652H5.46021V4.18652H4.46021V3.18652Z" fill="#F7F8FA"/>
<path d="M6.00574 12.1979L6.00171 15.9999L10.4413 10.0259L6.00574 12.1979Z" fill="#1286B0"/>
<path d="M11.0878 9.15039L6.00171 6.65991L5.98169 6.65039L5.98621 11.6504L6.00623 11.6409L11.0923 9.15039H11.0878Z" fill="#0E526A"/>
</svg>
